<svg width="500" height="450" viewBox="0 0 500 450" fill="none" xmlns="http://www.w3.org/2000/svg">
<g clip-path="url(#clip0_1015_33260)">
<path d="M500 0H0V450H500V0Z" fill="white"/>
<path d="M271.56 274.788C270.106 277.922 269.622 281.419 268.426 284.674C266.049 291.109 260.932 296.256 255.027 299.754C249.123 303.251 242.461 305.234 235.8 306.809C226.776 308.928 217.405 310.367 208.23 308.974C199.055 307.581 190.032 303.054 184.915 295.318C183.492 293.168 182.386 290.821 180.903 288.717C177.587 283.993 172.863 281.571 168.382 278.21C164.536 275.333 161.493 270.67 159.056 266.507C153.787 257.514 150.926 247.097 151.001 236.666C151.032 231.927 151.683 227.113 153.727 222.843C155.907 218.317 159.51 214.653 163.128 211.155C168.397 206.053 173.923 200.936 177.087 194.32C180.312 187.598 180.812 179.952 182.644 172.731C186.701 156.849 197.723 142.89 212.242 135.29C224.975 128.613 240.508 126.887 253.998 131.883C267.487 136.879 278.433 148.931 280.886 163.102C283.414 177.742 277.343 193.714 283.596 207.189C286.094 212.563 290.182 217.787 294.073 222.223C298.085 226.81 300.159 232.291 300.84 238.407C301.007 239.906 301.082 241.435 300.87 242.934C298.615 258.967 277.752 261.42 271.56 274.788Z" fill="#F6F6F6"/>
<path d="M255.799 167.083C255.39 167.719 254.83 168.188 254.179 168.552C253.589 168.9 252.923 169.142 252.257 169.324C250.5 169.823 248.472 169.945 247.003 168.855C246.17 168.234 245.565 167.235 244.581 166.871C243.021 166.311 241.432 167.628 239.781 167.84C238.646 167.992 237.495 167.583 236.557 166.917C235.633 166.235 234.906 165.327 234.301 164.343C233.619 163.268 233.014 162.042 231.924 161.406C230.94 160.83 229.759 160.815 228.623 160.83C227.215 160.876 225.626 161.027 224.732 162.132C224.354 162.602 224.021 163.389 223.536 163.858C223.188 164.207 222.779 164.358 222.219 164.146C220.629 163.525 221.356 161.814 221.977 160.8C223.415 158.423 226.08 156.773 228.881 156.712C230.031 156.682 231.167 156.909 232.317 156.939C233.529 156.97 234.74 156.803 235.89 156.425C237.162 156.001 238.343 155.35 239.615 154.956C242.098 154.184 245.095 154.593 246.836 156.516C247.366 157.091 247.76 157.772 248.366 158.287C249.35 159.12 250.697 159.301 251.908 159.71C253.437 160.21 254.876 161.148 255.693 162.511C256.526 163.889 256.677 165.736 255.799 167.083Z" fill="#3B2645"/>
<path d="M254.179 168.552C253.589 168.9 252.923 169.142 252.256 169.324C250.5 169.824 248.472 169.945 247.003 168.855C246.17 168.234 245.565 167.235 244.581 166.871C243.021 166.311 241.432 167.628 239.781 167.84C238.646 167.992 237.495 167.583 236.556 166.917C235.633 166.235 234.906 165.327 234.301 164.343C233.619 163.268 233.014 162.042 231.924 161.406C230.94 160.83 229.759 160.815 228.623 160.83C227.215 160.876 225.626 161.027 224.732 162.132C224.354 162.602 224.021 163.389 223.536 163.858C222.673 159.952 227.654 158.65 230.591 158.802C232.56 158.908 234.528 159.695 235.845 161.164C236.647 162.057 237.223 163.207 238.298 163.737C239.282 164.237 240.447 164.101 241.538 163.964C243.309 163.737 245.277 163.586 246.67 164.691C247.79 165.584 248.305 167.174 249.607 167.78C251.015 168.431 252.817 167.704 254.149 168.506L254.179 168.552Z" fill="#2C1C33"/>
<path d="M227.957 241.132C226.685 242.48 225.232 243.766 223.657 244.978C222.128 246.159 220.508 247.249 218.858 248.248C212.378 252.154 201.462 259.224 198.011 261.737C197.39 262.192 197.178 263.024 197.526 263.706C198.904 266.355 200.312 271.881 201.568 278.073C204.066 290.458 205.959 305.522 205.959 305.522C204.188 308.065 199.736 306.96 199.736 306.96C199.736 306.96 193.998 293.38 189.154 280.874C185.49 271.381 182.356 262.51 182.628 260.647C183.279 256.075 198.117 241.798 208.714 231.851C214.695 226.235 219.327 222.011 219.327 221.693C219.327 221.693 220.872 221.481 222.961 221.889C225.52 222.389 228.911 223.842 231.303 227.764C233.952 232.124 231.924 236.893 227.957 241.132Z" fill="#F5A784"/>
<path d="M296.586 267.9C296.662 268.884 296.389 269.898 296.086 270.701C295.708 271.715 295.223 272.442 295.223 272.442C295.223 272.442 280.704 273.456 266.972 273.744C256.042 273.971 245.625 273.744 243.521 272.184C240.735 270.156 235.133 257.923 230.243 246.522C229.441 244.69 228.684 242.874 227.942 241.133C224.369 232.669 221.583 225.796 221.25 225.705C221.25 225.705 221.614 223.903 222.946 221.86C224.324 219.71 226.761 217.302 230.94 216.409C239.085 214.683 246.564 226.084 246.973 235.289C247.048 237.03 247.26 239.058 247.533 241.208C248.487 248.415 250.304 256.954 251.061 260.36C251.227 261.132 251.984 261.662 252.771 261.541C255.86 261.072 261.81 261.435 268.32 262.131C281.037 263.479 295.935 266.068 295.935 266.068C296.359 266.628 296.541 267.264 296.586 267.9Z" fill="#F5A784"/>
<path d="M282.642 321.479C280.992 321.661 279.342 321.797 277.676 321.873L182.629 321.948C182.538 321.933 182.432 321.933 182.341 321.933C182.174 321.918 182.008 321.903 181.841 321.888C181.281 321.842 180.736 321.782 180.161 321.721C178.299 321.525 178.299 319.042 180.161 318.845C180.721 318.784 181.281 318.739 181.841 318.693C182.008 318.678 182.159 318.663 182.326 318.648C182.432 318.633 182.523 318.633 182.629 318.633L277.646 318.708C279.327 318.784 280.977 318.92 282.627 319.102C284.156 319.284 284.156 321.313 282.642 321.479Z" fill="#C6C6C6"/>
<path d="M215.739 201.845C214.816 196.818 213.574 191.686 212.439 192.292C210.259 193.472 207.897 199.816 206.171 208.93C204.46 218.044 201.25 220.86 201.25 220.86C196.633 221.224 192.015 221.572 187.398 221.935C183.855 222.223 180.448 223.116 177.39 220.86C176.376 220.103 175.392 219.286 174.196 218.892C173 218.499 171.516 218.65 170.729 219.619C169.078 221.678 169.926 225.826 172.47 226.523C176.588 227.643 181.009 228.021 185.263 228.37C191.394 228.884 197.632 229.263 203.794 228.824C206.035 228.733 209.29 224.418 212.015 220.043C214.861 215.486 217.147 210.868 217.147 210.868C217.147 210.868 216.587 206.402 215.739 201.845ZM179.04 222.904C179.01 222.889 178.98 222.889 178.95 222.859C178.98 222.859 179.01 222.874 179.04 222.889V222.904Z" fill="#F5A784"/>
<path d="M217.147 210.868C217.147 210.868 214.861 215.5 212.015 220.042C212.499 211.307 211.061 205.16 211.061 205.16C210.531 201.753 214.029 201.678 215.739 201.829C216.587 206.401 217.147 210.868 217.147 210.868Z" fill="#E0855C"/>
<path d="M239.403 219.921C232.211 222.919 226.262 223.918 221.81 224.085C219.494 223.464 219.116 222.889 219.116 222.889C218.873 222.783 218.116 220.92 218.041 220.678C217.617 219.194 216.617 217.847 216.148 216.378C215.209 213.441 215.088 210.277 212.969 207.794C212.484 207.249 211.924 206.749 211.53 206.144C210.456 204.539 210.562 202.45 210.879 200.527C210.895 200.421 210.925 200.3 210.94 200.179C211.318 198.074 211.046 196.182 211.182 194.108C211.288 192.624 212.651 192.079 214.029 191.64C214.286 191.564 215.285 191.231 215.482 191.171C216.315 190.913 217.178 190.671 217.919 190.489C219.025 190.202 219.842 190.02 219.842 190.02L220.024 182.874C219.827 179.528 227.321 177.984 227.321 177.984L227.76 188.885C227.775 188.96 228.184 188.93 228.941 188.854C229.411 188.809 230.016 188.748 230.743 188.688C230.788 188.673 230.819 188.673 230.879 188.673C231.046 188.657 231.197 188.642 231.364 188.627C231.666 188.612 231.984 188.582 232.317 188.567C232.984 188.506 233.68 188.476 234.346 188.536C235.512 188.642 236.526 189.051 236.92 190.247C237.707 192.639 237.238 195.364 237.041 197.802C236.905 199.392 236.875 200.921 236.905 202.48C236.92 202.965 236.92 203.434 236.935 203.918C237.011 205.644 237.117 207.355 237.253 209.081C237.268 209.338 237.283 209.581 237.298 209.823C237.359 210.489 238.767 219.921 239.403 219.921Z" fill="#F5A784"/>
<path d="M231.167 199.24C254.543 206.053 257.495 208.945 257.495 208.945C257.419 213.578 257.344 218.211 257.268 222.843C257.207 226.386 257.798 229.868 255.254 232.699C254.24 233.82 253.12 234.91 252.726 236.424C252.469 237.438 252.68 238.574 253.453 239.285C255.375 241.057 259.509 240.572 260.417 238.135C261.916 234.138 262.718 229.777 263.475 225.569C264.55 219.513 265.67 213.351 265.67 207.174C265.67 198.287 242.325 190.823 236.208 189.021C235.315 188.764 234.619 189.4 233.771 189.778C230.485 191.292 228.866 198.559 231.167 199.24ZM257.434 231.246C257.419 231.276 257.404 231.291 257.374 231.322C257.389 231.291 257.389 231.261 257.404 231.231L257.434 231.246Z" fill="#F5A784"/>
<path d="M247.548 241.223C246.503 241.163 245.489 241.193 244.49 241.269C243.96 241.314 243.445 241.344 242.93 241.435C237.359 242.223 232.772 244.811 230.243 246.537C229.441 244.706 228.684 242.889 227.942 241.148C226.67 242.495 225.217 243.782 223.642 244.993C222.961 243.933 222.083 242.858 221.099 241.784C217.329 237.756 211.818 233.896 208.699 231.852C214.68 226.235 219.312 222.011 219.312 221.693C219.312 221.693 220.857 221.481 222.946 221.89C224.324 219.74 226.761 217.333 230.94 216.439C239.085 214.714 246.564 226.114 246.973 235.319C247.048 237.045 247.26 239.073 247.548 241.223Z" fill="#8695C2"/>
<path d="M205.959 305.522C204.188 308.066 199.736 306.961 199.736 306.961C199.736 306.961 189.563 281.934 189.154 280.875C192.59 280.647 197.435 279.981 201.568 278.089C201.796 279.194 203.098 286.31 203.173 286.764C204.839 296.544 205.959 305.522 205.959 305.522Z" fill="#B8C3E3"/>
<path d="M207.322 309.427C207.337 310.26 206.777 311.017 206.095 311.486C205.414 311.956 204.596 312.183 203.794 312.41C200.615 313.349 197.799 314.863 194.453 315.408C192.454 315.726 188.351 316.271 187.731 313.53C187.731 313.53 187.716 313.485 187.716 313.394C187.685 313.137 187.67 312.561 187.927 311.91C188.306 310.926 189.335 309.76 191.909 309.185C192.469 309.064 192.954 308.897 193.378 308.701C193.605 308.595 193.817 308.489 194.029 308.368C194.089 308.322 194.15 308.292 194.195 308.246C194.544 308.019 194.816 307.777 195.058 307.52C195.089 307.489 195.119 307.474 195.134 307.444C195.391 307.156 195.603 306.884 195.77 306.581C195.785 306.566 195.815 306.536 195.815 306.505C196.012 306.187 196.164 305.915 196.315 305.627C196.784 304.673 197.133 303.916 197.995 303.765C200.039 303.447 202.946 304.204 202.81 306.278C202.81 306.278 205.323 306.233 205.686 304.749C205.914 303.81 206.353 304.613 206.504 305.113C206.761 305.976 206.625 306.929 206.913 307.823C206.958 307.944 206.988 308.05 207.034 308.171C207.17 308.549 207.291 308.913 207.306 309.291C207.322 309.352 207.322 309.397 207.322 309.427Z" fill="#FF4590"/>
<path d="M296.586 267.899L296.086 270.7C295.708 271.714 295.223 272.441 295.223 272.441C295.223 272.441 285.806 273.092 274.966 273.501C274.467 273.516 268.047 273.728 266.972 273.743C267.835 269.292 268.184 264.886 268.32 262.146C269.516 262.282 275.965 263.07 276.389 263.13C286.594 264.462 295.935 266.082 295.935 266.082C296.359 266.627 296.54 267.263 296.586 267.899Z" fill="#B8C3E3"/>
<path d="M225.52 161.3C225.035 160.558 224.157 160.482 223.324 160.407C222.477 160.331 221.629 160.437 220.826 160.694C219.721 161.073 220.175 162.617 221.311 162.42C221.932 162.314 222.567 162.254 223.203 162.329C223.839 162.405 224.399 162.723 225.035 162.511C225.505 162.36 225.822 161.784 225.52 161.3Z" fill="#FF4590"/>
<path d="M227.488 181.527C225.262 185.403 222.159 186.675 219.933 187.038L220.039 182.859C219.842 179.514 227.336 177.969 227.336 177.969L227.488 181.527Z" fill="#E0855C"/>
<path d="M213.786 175.759C213.786 175.759 210.561 163.238 219.645 162.36C232.136 161.149 233.241 171.187 230.122 175.85C227.276 180.119 213.847 180.922 213.786 175.759Z" fill="#3B2645"/>
<path d="M230.455 173.412C230.152 171.322 228.79 172.2 228.003 172.897C227.881 170.898 227.548 169.233 226.913 168.098C224.899 164.494 217.057 164.222 213.968 169.475C213.272 170.671 213.211 172.806 213.347 175.289C213.771 182.813 217.632 185.236 220.084 185.024C222.325 184.827 226.67 183.601 227.776 178.423C228.82 177.575 230.788 175.607 230.455 173.412Z" fill="#F5A784"/>
<path d="M216.875 175.472C216.875 175.472 216.254 175.774 216.239 174.609C216.239 173.564 216.708 173.67 216.708 173.67C216.708 173.67 217.162 173.625 217.162 174.533C217.178 175.441 216.875 175.472 216.875 175.472Z" fill="#3B2645"/>
<path d="M223.022 175.078C223.022 175.078 222.401 175.38 222.386 174.215C222.386 173.17 222.855 173.276 222.855 173.276C222.855 173.276 223.309 173.231 223.309 174.139C223.34 175.062 223.022 175.078 223.022 175.078Z" fill="#3B2645"/>
<path d="M220.448 177.651C220.115 177.636 219.373 177.893 219.191 177.545C219.04 177.257 219.418 175.471 219.464 175.168C219.509 174.835 219.57 174.532 219.63 174.245C219.6 174.23 219.57 174.199 219.539 174.184C219.464 174.154 219.388 174.139 219.327 174.124C219.131 175.35 219.025 176.622 218.828 177.772C218.813 177.878 218.888 177.969 218.994 177.969C219.479 177.924 219.948 177.984 220.433 177.939C220.599 177.924 220.614 177.666 220.448 177.651Z" fill="#E0855C"/>
<path d="M217.268 171.928C216.784 171.732 215.906 171.747 215.618 172.261C215.558 172.352 215.664 172.473 215.754 172.473C215.982 172.443 216.178 172.307 216.405 172.277C216.648 172.231 216.89 172.277 217.147 172.322C217.374 172.352 217.48 172.004 217.268 171.928Z" fill="#3B2645"/>
<path d="M223.733 172.08C223.415 171.444 222.249 171.489 221.795 171.928C221.689 172.034 221.78 172.201 221.901 172.231C222.189 172.292 222.492 172.156 222.794 172.156C223.052 172.156 223.279 172.246 223.521 172.322C223.657 172.352 223.794 172.201 223.733 172.08Z" fill="#3B2645"/>
<path d="M221.386 179.362C220.947 179.619 220.629 179.922 220.1 179.983C219.691 180.043 219.221 179.877 218.843 180.059C218.782 180.089 218.737 180.165 218.798 180.225C219.146 180.649 219.933 180.619 220.417 180.528C220.947 180.437 221.553 180.18 221.78 179.665C221.871 179.438 221.598 179.241 221.386 179.362Z" fill="#E0855C"/>
<path d="M228.532 167.008C229.925 168.401 228.941 170.611 228.275 172.125C228.215 172.261 228.109 172.413 227.972 172.367C227.851 171.883 227.821 171.368 227.685 170.884C227.548 170.399 227.276 169.915 226.822 169.688C226.216 169.4 225.444 169.536 224.793 169.37C223.218 168.961 223.173 166.841 221.765 166.387C220.236 165.887 218.358 167.295 217.45 168.355C216.405 169.566 215.558 171.02 214.165 171.807C213.226 172.337 212.121 172.488 211.031 172.564C210.001 172.64 208.957 172.64 208.003 172.276C207.185 171.958 205.58 170.687 206.504 170.021C206.943 169.703 208.079 169.763 208.624 169.657C209.275 169.521 209.91 169.339 210.501 169.036C212.03 168.234 212.409 166.932 213.438 165.706C214.392 164.555 215.845 163.647 217.268 163.208C218.676 162.784 220.387 162.784 221.795 163.223C223.445 163.738 224.929 164.616 226.352 165.554C227.003 165.978 227.927 166.402 228.532 167.008Z" fill="#3B2645"/>
<path d="M207.322 309.428C207.337 310.261 206.777 311.018 206.095 311.487C205.414 311.957 204.596 312.184 203.794 312.411C200.615 313.349 197.799 314.863 194.453 315.408C192.454 315.726 188.351 316.271 187.731 313.531C187.731 313.531 187.716 313.486 187.716 313.395C187.685 313.138 187.67 312.562 187.927 311.911C187.943 311.941 187.973 311.987 187.988 312.017C189.532 316.892 198.268 313.607 201.372 312.396C203.461 311.563 205.369 310.382 207.306 309.307C207.322 309.353 207.322 309.398 207.322 309.428Z" fill="#DE3C7C"/>
<path d="M197.269 310.639C196.36 310.427 195.528 309.791 194.695 309.382C194.256 309.155 193.802 308.958 193.378 308.716C193.605 308.61 193.817 308.504 194.029 308.383C194.089 308.337 194.15 308.307 194.195 308.262C194.453 308.368 194.695 308.474 194.937 308.58C195.815 308.988 196.921 309.367 197.587 310.063C197.844 310.321 197.602 310.714 197.269 310.639Z" fill="#DE3C7C"/>
<path d="M198.995 309.353C198.011 309.307 197.133 308.55 196.285 308.111C195.921 307.914 195.482 307.748 195.058 307.536C195.089 307.506 195.119 307.49 195.134 307.46C195.391 307.172 195.603 306.9 195.77 306.597C196.088 306.733 196.406 306.915 196.693 307.036C197.602 307.46 198.813 307.854 199.343 308.747C199.509 308.989 199.313 309.353 198.995 309.353Z" fill="#DE3C7C"/>
<path d="M202.477 282.782C198.813 284.372 194.725 285.326 190.91 285.326C190.744 284.917 190.592 284.493 190.41 284.084C193.045 283.857 195.649 283.615 198.238 282.888C199.631 282.494 200.948 281.995 202.235 281.435C202.31 281.889 202.386 282.328 202.477 282.782Z" fill="white"/>
<path d="M203.173 286.749C199.57 287.854 195.679 288.46 192.076 288.278C191.909 287.839 191.728 287.385 191.546 286.946C194.483 286.779 197.42 286.658 200.372 286.022C201.235 285.825 202.083 285.598 202.916 285.341C203.007 285.81 203.098 286.28 203.173 286.749Z" fill="white"/>
<path d="M271.802 273.607C271.272 273.622 270.742 273.637 270.212 273.652C270.667 272.244 271.075 270.806 271.348 269.322C271.772 267.066 271.832 264.811 271.938 262.555C272.393 262.6 272.862 262.661 273.316 262.721C273.528 266.234 272.938 270.14 271.802 273.607Z" fill="white"/>
<path d="M227.957 241.132C226.685 242.48 225.232 243.767 223.657 244.978C222.976 243.918 222.098 242.843 221.114 241.768L227.957 241.132Z" fill="#6B779C"/>
<path d="M244.49 241.268C243.96 241.299 243.445 241.344 242.93 241.435C241.916 233.638 240.675 226.416 235.618 219.755C235.406 219.467 235.845 219.225 236.057 219.407C241.916 224.039 243.975 233.365 244.49 241.268Z" fill="#6B779C"/>
<path d="M263.021 228.536C261.825 227.673 259.887 227.476 258.464 227.264C257.767 227.158 256.935 227.067 256.299 227.491C255.814 227.809 255.421 228.551 255.769 229.111C256.329 230.004 257.495 230.019 258.418 230.277C259.357 230.534 260.659 230.655 261.431 231.246C263.036 232.427 264.656 229.717 263.021 228.536Z" fill="#8695C2"/>
<path d="M181.569 221.526C181.175 220.391 179.358 220.194 179.056 221.526C178.829 222.541 178.859 223.57 178.723 224.6C178.586 225.629 178.193 226.704 178.329 227.749C178.511 229.187 180.327 229.944 181.19 228.521C181.811 227.507 181.841 226.22 181.887 225.054C181.932 223.888 181.947 222.632 181.569 221.526Z" fill="#8695C2"/>
<path d="M239.766 219.453C230.092 224.948 218.343 222.753 218.343 222.753C218.101 222.647 217.586 221.012 217.511 220.77C217.087 219.286 216.617 217.833 216.163 216.349C215.225 213.412 215.103 210.248 212.984 207.765C212.499 207.22 211.939 206.72 211.546 206.114C210.471 204.51 210.577 202.42 210.895 200.498L214.044 191.61C214.301 191.535 215.3 191.202 215.497 191.141C216.33 190.884 217.193 190.642 217.935 190.46C217.253 193.564 216.481 200.286 220.69 200.482C225.489 200.709 228.184 193.563 228.972 188.825C229.441 188.779 230.046 188.719 230.773 188.658C230.819 188.643 230.849 188.643 230.909 188.643C231.076 188.628 231.227 188.613 231.394 188.598C231.697 188.582 232.015 188.552 232.348 188.537C232.181 190.278 231.984 193.473 232.514 196.546C233.044 199.665 234.286 202.647 236.965 203.874C237.041 205.6 237.147 207.31 237.283 209.036C237.298 209.294 237.314 209.536 237.329 209.778C237.344 209.899 237.404 210.278 237.51 210.838C237.965 213.412 239.236 219.453 239.766 219.453Z" fill="#FF4590"/>
<path d="M237.495 210.883C231.848 206.856 232.499 197.106 232.499 196.606C233.029 199.71 234.271 202.677 236.95 203.918C237.026 205.644 237.132 207.355 237.268 209.081C237.283 209.339 237.298 209.581 237.314 209.823C237.329 209.944 237.389 210.323 237.495 210.883Z" fill="#DE3C7C"/>
<path d="M197.814 196.137C187.67 195.562 177.345 195.97 167.186 196.152C166.913 196.152 166.913 196.576 167.186 196.591C177.345 196.773 187.67 197.181 197.814 196.606C198.117 196.591 198.117 196.167 197.814 196.137Z" fill="#C1CAE3"/>
<path d="M196.27 199.967C192.136 199.559 187.806 199.892 183.658 200.119C183.507 200.134 183.507 200.361 183.658 200.361C187.791 200.588 192.136 200.921 196.27 200.512C196.603 200.467 196.618 200.013 196.27 199.967Z" fill="#C1CAE3"/>
<path d="M293.043 248.535C287.623 248.172 282.127 248.399 276.692 248.429C271.242 248.445 265.791 248.384 260.341 248.717C260.114 248.732 260.114 249.05 260.341 249.065C265.776 249.398 271.242 249.338 276.692 249.353C282.112 249.368 287.623 249.61 293.043 249.247C293.497 249.201 293.497 248.566 293.043 248.535Z" fill="#C1CAE3"/>
<path d="M251.681 282.085C245.61 281.737 239.463 281.994 233.392 282.025C227.609 282.055 221.795 281.904 216.012 282.297C215.83 282.312 215.845 282.615 216.027 282.63C221.932 283.024 227.897 282.873 233.816 282.903C239.736 282.933 245.716 283.175 251.621 282.842C252.09 282.812 252.181 282.1 251.681 282.085Z" fill="#C1CAE3"/>
<path d="M281.976 149.537C273.452 149.143 264.898 149.37 256.359 149.37C247.866 149.37 239.221 148.946 230.743 149.537C230.425 149.552 230.425 150.006 230.743 150.021C239.221 150.627 247.851 150.188 256.359 150.188C264.883 150.188 273.452 150.415 281.976 150.021C282.294 150.036 282.294 149.552 281.976 149.537Z" fill="#C1CAE3"/>
<path d="M270.197 153.972C266.155 153.261 261.916 153.654 257.919 154.472C257.631 154.532 257.692 155.032 257.994 155.002C262.067 154.472 266.034 154.547 270.122 154.532C270.424 154.517 270.515 154.033 270.197 153.972Z" fill="#C1CAE3"/>
<path d="M299.114 280.254C298.963 280.844 298.736 281.601 298.433 282.343C298.418 282.373 298.403 282.419 298.388 282.449C298.115 283.1 297.752 283.751 297.313 284.235C296.798 284.811 296.162 285.174 295.375 285.159C295.375 285.159 295.329 285.159 295.238 285.144C295.027 285.113 294.618 285.007 294.164 284.75C293.24 284.22 292.135 282.948 292.241 280.011C292.256 279.391 292.21 278.846 292.135 278.346C292.105 278.134 292.059 277.937 291.999 277.755C291.938 277.574 291.877 277.407 291.802 277.241C291.665 276.953 291.514 276.681 291.363 276.438C291.166 276.151 290.984 275.939 290.802 275.727C290.757 275.651 290.697 275.591 290.636 275.53C290.379 275.273 290.151 275.045 289.909 274.834C289.122 274.122 288.456 273.607 288.532 272.729C288.743 270.67 290.227 268.051 292.195 268.702C292.195 268.702 292.786 266.264 291.454 265.538C290.439 264.993 291.802 264.917 292.226 264.871C293.164 264.766 295.375 264.508 295.526 264.493C295.799 264.463 296.086 264.432 296.359 264.463C296.45 264.478 296.525 264.478 296.616 264.508C297.267 264.69 297.706 265.28 298.024 265.871C298.978 267.688 299.175 269.792 299.341 271.836C299.568 274.637 299.811 277.513 299.114 280.254Z" fill="#FF4590"/>
<path d="M299.114 280.253C298.963 280.844 298.736 281.601 298.433 282.343C298.418 282.373 298.403 282.418 298.387 282.449C298.07 283.069 297.706 283.675 297.313 284.235C296.798 284.81 296.162 285.174 295.375 285.159C295.375 285.159 295.329 285.159 295.238 285.143C295.026 285.113 294.618 285.007 294.163 284.75C300.098 279.814 298.221 270.973 296.359 264.478C296.45 264.493 296.525 264.493 296.616 264.523C297.267 264.705 297.706 265.295 298.024 265.886C298.978 267.702 299.175 269.807 299.341 271.851C299.568 274.636 299.811 277.513 299.114 280.253Z" fill="#DE3C7C"/>
<path d="M294.451 273.879C293.619 274.349 292.862 274.667 292.195 275.378C291.893 275.696 291.59 276.06 291.317 276.423C291.166 276.181 290.984 275.969 290.802 275.772C291.06 275.454 291.332 275.166 291.469 275C292.15 274.182 293.149 273.244 294.254 273.198C294.618 273.183 294.769 273.698 294.451 273.879Z" fill="#DE3C7C"/>
<path d="M295.163 275.666C295.087 276.09 294.754 276.196 294.421 276.393C293.982 276.65 293.558 276.922 293.164 277.24C292.801 277.558 292.468 277.982 292.12 278.361C292.089 278.149 292.044 277.952 291.983 277.77C291.923 277.589 291.862 277.422 291.787 277.256C292.044 276.968 292.332 276.695 292.589 276.483C293.119 276.014 294.3 274.894 295.027 275.348C295.133 275.424 295.178 275.545 295.163 275.666Z" fill="#DE3C7C"/>
<path d="M274.981 273.486C274.482 273.501 273.982 273.531 273.483 273.547C273.861 272.335 274.194 271.124 274.436 269.883C274.906 267.551 274.997 265.265 275.102 262.949C275.542 262.994 275.965 263.055 276.389 263.115C276.541 266.507 276.011 270.155 274.981 273.486Z" fill="white"/>
</g>
<defs>
<clipPath id="clip0_1015_33260">
<rect width="500" height="450" fill="white"/>
</clipPath>
</defs>
</svg>
