<svg width="36" height="31" viewBox="0 0 36 31" fill="none" xmlns="http://www.w3.org/2000/svg">
<path fill-rule="evenodd" clip-rule="evenodd" d="M35.1992 4.05147C33.9132 4.65385 32.5286 5.06122 31.0761 5.24323C32.5594 4.30715 33.6975 2.82287 34.2337 1.05472C32.8449 1.92146 31.3103 2.552 29.671 2.89003C28.3644 1.41874 26.497 0.5 24.4303 0.5C20.4675 0.5 17.2524 3.89111 17.2524 8.07313C17.2524 8.66684 17.314 9.24323 17.4373 9.79795C11.4694 9.48159 6.17944 6.46966 2.63568 1.88245C2.01732 3.00487 1.66396 4.30715 1.66396 5.69394C1.66396 8.32015 2.93151 10.6387 4.85849 11.9973C3.6834 11.9605 2.57405 11.6159 1.60439 11.0526V11.1457C1.60439 14.8164 4.07989 17.8781 7.36685 18.5715C6.76493 18.7492 6.13013 18.838 5.4748 18.838C5.01257 18.838 4.56061 18.7925 4.12303 18.7037C5.03722 21.7113 7.68732 23.902 10.8305 23.9605C8.37348 25.993 5.27552 27.2042 1.91254 27.2042C1.33322 27.2042 0.760057 27.1696 0.199219 27.1002C3.3773 29.2454 7.1532 30.5 11.2064 30.5C24.4159 30.5 31.637 18.9615 31.637 8.95287C31.637 8.62351 31.6308 8.29415 31.6185 7.97129C33.0216 6.90303 34.2398 5.57043 35.1992 4.05147Z" fill="#00AAEC"/>
</svg>
