<svg width="136" height="29" viewBox="0 0 136 29" fill="none" xmlns="http://www.w3.org/2000/svg">
<rect x="98" y="4" width="19" height="19" rx="4.75" fill="#174E2E"/>
<path d="M111.165 11.6C110.351 9.69996 111.165 5.89996 107.501 5.89996C103.836 5.89996 104.651 9.69996 103.836 11.22C103.022 12.74 101.801 13.88 101.801 16.16C101.801 19.58 104.854 21.1 107.501 21.1C110.147 21.1 113.201 19.58 113.201 16.16C113.201 14.26 111.979 13.5 111.165 11.6Z" stroke="url(#paint0_linear_844_29378)" stroke-width="1.425"/>
<path d="M109.942 15.7798C109.942 16.3845 109.685 16.9644 109.227 17.392C108.769 17.8196 108.147 18.0598 107.499 18.0598C106.852 18.0598 106.23 17.8196 105.772 17.392C105.314 16.9644 105.057 16.3845 105.057 15.7798C105.057 14.5205 106.15 12.9298 107.499 12.9298C108.849 12.9298 109.942 14.5205 109.942 15.7798Z" stroke="url(#paint1_linear_844_29378)" stroke-width="1.425"/>
<path d="M13.512 6.2H17.4V23H13.512V6.2ZM5.88 23H1.992V6.2H5.88V23ZM13.8 16.112H5.592V12.824H13.8V16.112ZM28.2388 23.192C26.7668 23.192 25.4708 22.904 24.3508 22.328C23.2468 21.752 22.3908 20.968 21.7828 19.976C21.1748 18.968 20.8708 17.824 20.8708 16.544C20.8708 15.248 21.1668 14.104 21.7588 13.112C22.3668 12.104 23.1908 11.32 24.2308 10.76C25.2708 10.184 26.4468 9.896 27.7588 9.896C29.0228 9.896 30.1588 10.168 31.1668 10.712C32.1908 11.24 32.9988 12.008 33.5908 13.016C34.1828 14.008 34.4788 15.2 34.4788 16.592C34.4788 16.736 34.4708 16.904 34.4548 17.096C34.4388 17.272 34.4228 17.44 34.4068 17.6H23.9188V15.416H32.4388L30.9988 16.064C30.9988 15.392 30.8628 14.808 30.5908 14.312C30.3188 13.816 29.9428 13.432 29.4628 13.16C28.9828 12.872 28.4228 12.728 27.7828 12.728C27.1428 12.728 26.5748 12.872 26.0788 13.16C25.5988 13.432 25.2228 13.824 24.9508 14.336C24.6788 14.832 24.5428 15.424 24.5428 16.112V16.688C24.5428 17.392 24.6948 18.016 24.9988 18.56C25.3188 19.088 25.7588 19.496 26.3188 19.784C26.8948 20.056 27.5668 20.192 28.3348 20.192C29.0228 20.192 29.6228 20.088 30.1348 19.88C30.6628 19.672 31.1428 19.36 31.5748 18.944L33.5668 21.104C32.9748 21.776 32.2308 22.296 31.3348 22.664C30.4388 23.016 29.4068 23.192 28.2388 23.192ZM45.2599 23V20.48L45.0199 19.928V15.416C45.0199 14.616 44.7719 13.992 44.2759 13.544C43.7959 13.096 43.0519 12.872 42.0439 12.872C41.3559 12.872 40.6759 12.984 40.0039 13.208C39.3479 13.416 38.7879 13.704 38.3239 14.072L36.9799 11.456C37.6839 10.96 38.5319 10.576 39.5239 10.304C40.5159 10.032 41.5239 9.896 42.5479 9.896C44.5159 9.896 46.0439 10.36 47.1319 11.288C48.2199 12.216 48.7639 13.664 48.7639 15.632V23H45.2599ZM41.3239 23.192C40.3159 23.192 39.4519 23.024 38.7319 22.688C38.0119 22.336 37.4599 21.864 37.0759 21.272C36.6919 20.68 36.4999 20.016 36.4999 19.28C36.4999 18.512 36.6839 17.84 37.0519 17.264C37.4359 16.688 38.0359 16.24 38.8519 15.92C39.6679 15.584 40.7319 15.416 42.0439 15.416H45.4759V17.6H42.4519C41.5719 17.6 40.9639 17.744 40.6279 18.032C40.3079 18.32 40.1479 18.68 40.1479 19.112C40.1479 19.592 40.3319 19.976 40.6999 20.264C41.0839 20.536 41.6039 20.672 42.2599 20.672C42.8839 20.672 43.4439 20.528 43.9399 20.24C44.4359 19.936 44.7959 19.496 45.0199 18.92L45.5959 20.648C45.3239 21.48 44.8279 22.112 44.1079 22.544C43.3879 22.976 42.4599 23.192 41.3239 23.192ZM52.8724 23V5.192H56.6164V23H52.8724ZM67.0521 23.192C65.5321 23.192 64.3481 22.808 63.5001 22.04C62.6521 21.256 62.2281 20.096 62.2281 18.56V7.232H65.9721V18.512C65.9721 19.056 66.1161 19.48 66.4041 19.784C66.6921 20.072 67.0841 20.216 67.5801 20.216C68.1721 20.216 68.6761 20.056 69.0921 19.736L70.1001 22.376C69.7161 22.648 69.2521 22.856 68.7081 23C68.1801 23.128 67.6281 23.192 67.0521 23.192ZM60.2361 13.256V10.376H69.1881V13.256H60.2361ZM80.7697 9.896C81.7937 9.896 82.7057 10.104 83.5057 10.52C84.3217 10.92 84.9617 11.544 85.4257 12.392C85.8897 13.224 86.1217 14.296 86.1217 15.608V23H82.3777V16.184C82.3777 15.144 82.1457 14.376 81.6817 13.88C81.2337 13.384 80.5937 13.136 79.7617 13.136C79.1697 13.136 78.6337 13.264 78.1537 13.52C77.6897 13.76 77.3217 14.136 77.0497 14.648C76.7937 15.16 76.6657 15.816 76.6657 16.616V23H72.9217V5.192H76.6657V13.664L75.8257 12.584C76.2897 11.72 76.9537 11.056 77.8177 10.592C78.6817 10.128 79.6657 9.896 80.7697 9.896ZM90.2355 23V5.192H93.9795V23H90.2355ZM128.357 23.192C127.221 23.192 126.245 22.952 125.429 22.472C124.613 21.992 123.989 21.264 123.557 20.288C123.125 19.296 122.909 18.048 122.909 16.544C122.909 15.024 123.133 13.776 123.581 12.8C124.045 11.824 124.685 11.096 125.501 10.616C126.317 10.136 127.269 9.896 128.357 9.896C129.573 9.896 130.661 10.168 131.621 10.712C132.597 11.256 133.365 12.024 133.925 13.016C134.501 14.008 134.789 15.184 134.789 16.544C134.789 17.888 134.501 19.056 133.925 20.048C133.365 21.04 132.597 21.816 131.621 22.376C130.661 22.92 129.573 23.192 128.357 23.192ZM120.725 23V5.192H124.469V12.704L124.229 16.52L124.301 20.36V23H120.725ZM127.709 20.12C128.333 20.12 128.885 19.976 129.365 19.688C129.861 19.4 130.253 18.992 130.541 18.464C130.845 17.92 130.997 17.28 130.997 16.544C130.997 15.792 130.845 15.152 130.541 14.624C130.253 14.096 129.861 13.688 129.365 13.4C128.885 13.112 128.333 12.968 127.709 12.968C127.085 12.968 126.525 13.112 126.029 13.4C125.533 13.688 125.141 14.096 124.853 14.624C124.565 15.152 124.421 15.792 124.421 16.544C124.421 17.28 124.565 17.92 124.853 18.464C125.141 18.992 125.533 19.4 126.029 19.688C126.525 19.976 127.085 20.12 127.709 20.12Z" fill="#174E2E"/>
<defs>
<linearGradient id="paint0_linear_844_29378" x1="101.801" y1="5.89996" x2="114.358" y2="6.92561" gradientUnits="userSpaceOnUse">
<stop stop-color="#7ACB94"/>
<stop offset="1" stop-color="#DACC6C"/>
</linearGradient>
<linearGradient id="paint1_linear_844_29378" x1="105.057" y1="12.9298" x2="110.417" y2="13.4857" gradientUnits="userSpaceOnUse">
<stop stop-color="#7ACB94"/>
<stop offset="1" stop-color="#DACC6C"/>
</linearGradient>
</defs>
</svg>
